<mxfile host="app.diagrams.net" modified="2024-06-26T09:55:23.759Z" agent="Mozilla/5.0 (Windows NT 10.0; Win64; x64) AppleWebKit/537.36 (KHTML, like Gecko) Chrome/125.0.0.0 Safari/537.36" etag="uBptBG2zvPAofhWJHagQ" version="24.6.3" type="github">
  <diagram name="Page-1" id="eOzxwkxJhR1uEOVXx61d">
    <mxGraphModel dx="2219" dy="1041" grid="1" gridSize="10" guides="1" tooltips="1" connect="1" arrows="1" fold="1" page="1" pageScale="1" pageWidth="1169" pageHeight="827" math="0" shadow="0">
      <root>
        <object label="" id="0">
          <mxCell />
        </object>
        <mxCell id="1" parent="0" />
      </root>
    </mxGraphModel>
  </diagram>
</mxfile>
